<svg xmlns="http://www.w3.org/2000/svg" xmlns:xlink="http://www.w3.org/1999/xlink" width="500" zoomAndPan="magnify" viewBox="0 0 375 374.999991" height="500" preserveAspectRatio="xMidYMid meet" version="1.0"><defs><g/></defs><g fill="#e4e2dd" fill-opacity="1"><g transform="translate(8.019376, 222.187485)"><g><path d="M 29.8125 -1.703125 C 23.945312 -3.628906 18.800781 -6.691406 14.375 -10.890625 C 9.957031 -15.097656 6.65625 -20.09375 4.46875 -25.875 C 2.28125 -31.914062 1.488281 -37.9375 2.09375 -43.9375 C 2.707031 -49.9375 4.457031 -55.582031 7.34375 -60.875 C 10.238281 -66.175781 14.003906 -70.835938 18.640625 -74.859375 C 23.285156 -78.890625 28.539062 -81.867188 34.40625 -83.796875 C 36.769531 -84.585938 39.394531 -85.265625 42.28125 -85.828125 C 45.175781 -86.398438 47.976562 -86.578125 50.6875 -86.359375 C 53.40625 -86.140625 55.660156 -85.238281 57.453125 -83.65625 C 59.253906 -82.082031 60.242188 -79.503906 60.421875 -75.921875 C 60.597656 -72.503906 59.851562 -69.675781 58.1875 -67.4375 C 56.519531 -65.207031 54.347656 -63.390625 51.671875 -61.984375 C 49.003906 -60.585938 46.179688 -59.429688 43.203125 -58.515625 C 40.234375 -57.597656 37.476562 -56.742188 34.9375 -55.953125 C 32.832031 -53.941406 30.96875 -51.664062 29.34375 -49.125 C 27.726562 -46.582031 26.679688 -44.039062 26.203125 -41.5 C 25.722656 -38.96875 26.070312 -36.601562 27.25 -34.40625 C 28.4375 -32.21875 30.738281 -30.378906 34.15625 -28.890625 C 36.25 -28.015625 38.457031 -27.398438 40.78125 -27.046875 C 43.101562 -26.703125 45.335938 -26.351562 47.484375 -26 C 49.628906 -25.65625 51.554688 -25.066406 53.265625 -24.234375 C 54.972656 -23.398438 56.238281 -22.128906 57.0625 -20.421875 C 57.894531 -18.710938 58.140625 -16.238281 57.796875 -13 C 57.441406 -9.5 56.300781 -6.765625 54.375 -4.796875 C 52.445312 -2.828125 50.101562 -1.488281 47.34375 -0.78125 C 44.59375 -0.0820312 41.679688 0.15625 38.609375 -0.0625 C 35.546875 -0.28125 32.613281 -0.828125 29.8125 -1.703125 Z M 29.8125 -1.703125 "/></g></g></g><g fill="#e4e2dd" fill-opacity="1"><g transform="translate(62.918247, 222.187485)"><g><path d="M 37.03125 -4.734375 C 32.65625 -1.398438 28.191406 0.175781 23.640625 0 C 19.085938 -0.175781 15.035156 -1.773438 11.484375 -4.796875 C 7.941406 -7.816406 5.382812 -11.78125 3.8125 -16.6875 C 2.5 -21.238281 1.882812 -26.070312 1.96875 -31.1875 C 2.050781 -36.3125 3.035156 -41.21875 4.921875 -45.90625 C 6.804688 -50.59375 9.628906 -54.507812 13.390625 -57.65625 C 15.929688 -59.757812 18.953125 -61.226562 22.453125 -62.0625 C 25.960938 -62.894531 29.421875 -63.023438 32.828125 -62.453125 C 36.242188 -61.878906 39.132812 -60.5 41.5 -58.3125 C 43.863281 -56.125 45.132812 -52.972656 45.3125 -48.859375 C 46.71875 -45.359375 47.660156 -41.570312 48.140625 -37.5 C 48.617188 -33.425781 48.570312 -29.351562 48 -25.28125 C 47.4375 -21.207031 46.253906 -17.375 44.453125 -13.78125 C 42.660156 -10.195312 40.1875 -7.179688 37.03125 -4.734375 Z M 32.046875 -22.453125 C 33.015625 -22.722656 33.738281 -23.578125 34.21875 -25.015625 C 34.695312 -26.460938 35.023438 -28.128906 35.203125 -30.015625 C 35.378906 -31.898438 35.441406 -33.671875 35.390625 -35.328125 C 35.347656 -36.992188 35.285156 -38.085938 35.203125 -38.609375 C 34.410156 -38.003906 33.664062 -37.257812 32.96875 -36.375 C 32.269531 -35.5 31.703125 -34.625 31.265625 -33.75 C 29.597656 -30.34375 28.695312 -27.457031 28.5625 -25.09375 C 28.4375 -22.726562 29.597656 -21.847656 32.046875 -22.453125 Z M 32.046875 -22.453125 "/></g></g></g><g fill="#e4e2dd" fill-opacity="1"><g transform="translate(105.865368, 222.187485)"><g><path d="M 9.71875 18.390625 C 7.96875 16.460938 6.566406 13.59375 5.515625 9.78125 C 4.460938 5.976562 3.671875 1.648438 3.140625 -3.203125 C 2.617188 -8.066406 2.3125 -13.101562 2.21875 -18.3125 C 2.132812 -23.53125 2.179688 -28.546875 2.359375 -33.359375 C 2.535156 -38.171875 2.753906 -42.421875 3.015625 -46.109375 C 3.109375 -47.503906 3.238281 -49.554688 3.40625 -52.265625 C 3.582031 -54.984375 3.847656 -57.984375 4.203125 -61.265625 C 4.554688 -64.554688 5.125 -67.796875 5.90625 -70.984375 C 6.695312 -74.179688 7.75 -77.003906 9.0625 -79.453125 C 10.375 -81.910156 12.082031 -83.664062 14.1875 -84.71875 C 16.289062 -85.769531 18.828125 -85.769531 21.796875 -84.71875 C 23.554688 -84.019531 24.738281 -82.640625 25.34375 -80.578125 C 25.957031 -78.523438 26.195312 -76.097656 26.0625 -73.296875 C 25.9375 -70.492188 25.585938 -67.644531 25.015625 -64.75 C 24.453125 -61.863281 23.863281 -59.191406 23.25 -56.734375 C 22.632812 -54.285156 22.195312 -52.40625 21.9375 -51.09375 C 20.625 -44.613281 19.96875 -37.828125 19.96875 -30.734375 C 19.96875 -23.640625 20.25 -16.695312 20.8125 -9.90625 C 21.382812 -3.125 21.757812 3.15625 21.9375 8.9375 C 22.019531 10.332031 21.734375 11.945312 21.078125 13.78125 C 20.421875 15.625 19.523438 17.242188 18.390625 18.640625 C 17.253906 20.046875 15.941406 20.835938 14.453125 21.015625 C 12.960938 21.191406 11.382812 20.316406 9.71875 18.390625 Z M 9.71875 18.390625 "/></g></g></g><g fill="#e4e2dd" fill-opacity="1"><g transform="translate(128.980472, 222.187485)"><g><path d="M 9.71875 18.390625 C 7.96875 16.460938 6.566406 13.59375 5.515625 9.78125 C 4.460938 5.976562 3.671875 1.648438 3.140625 -3.203125 C 2.617188 -8.066406 2.3125 -13.101562 2.21875 -18.3125 C 2.132812 -23.53125 2.179688 -28.546875 2.359375 -33.359375 C 2.535156 -38.171875 2.753906 -42.421875 3.015625 -46.109375 C 3.109375 -47.503906 3.238281 -49.554688 3.40625 -52.265625 C 3.582031 -54.984375 3.847656 -57.984375 4.203125 -61.265625 C 4.554688 -64.554688 5.125 -67.796875 5.90625 -70.984375 C 6.695312 -74.179688 7.75 -77.003906 9.0625 -79.453125 C 10.375 -81.910156 12.082031 -83.664062 14.1875 -84.71875 C 16.289062 -85.769531 18.828125 -85.769531 21.796875 -84.71875 C 23.554688 -84.019531 24.738281 -82.640625 25.34375 -80.578125 C 25.957031 -78.523438 26.195312 -76.097656 26.0625 -73.296875 C 25.9375 -70.492188 25.585938 -67.644531 25.015625 -64.75 C 24.453125 -61.863281 23.863281 -59.191406 23.25 -56.734375 C 22.632812 -54.285156 22.195312 -52.40625 21.9375 -51.09375 C 20.625 -44.613281 19.96875 -37.828125 19.96875 -30.734375 C 19.96875 -23.640625 20.25 -16.695312 20.8125 -9.90625 C 21.382812 -3.125 21.757812 3.15625 21.9375 8.9375 C 22.019531 10.332031 21.734375 11.945312 21.078125 13.78125 C 20.421875 15.625 19.523438 17.242188 18.390625 18.640625 C 17.253906 20.046875 15.941406 20.835938 14.453125 21.015625 C 12.960938 21.191406 11.382812 20.316406 9.71875 18.390625 Z M 9.71875 18.390625 "/></g></g></g><g fill="#e4e2dd" fill-opacity="1"><g transform="translate(152.095562, 222.187485)"><g><path d="M 41.90625 -0.125 C 40.414062 -0.476562 39.273438 -1.332031 38.484375 -2.6875 C 37.691406 -4.050781 37.140625 -5.628906 36.828125 -7.421875 C 36.523438 -9.210938 36.332031 -10.960938 36.25 -12.671875 C 36.164062 -14.378906 36.125 -15.757812 36.125 -16.8125 C 34.28125 -14.269531 31.9375 -12.101562 29.09375 -10.3125 C 26.25 -8.519531 23.269531 -7.378906 20.15625 -6.890625 C 17.050781 -6.410156 14.140625 -6.78125 11.421875 -8 C 8.710938 -9.226562 6.484375 -11.550781 4.734375 -14.96875 C 3.066406 -18.476562 2.164062 -22.242188 2.03125 -26.265625 C 1.90625 -30.296875 2.410156 -34.300781 3.546875 -38.28125 C 4.679688 -42.269531 6.210938 -45.796875 8.140625 -48.859375 C 9.984375 -51.660156 12.21875 -54.15625 14.84375 -56.34375 C 17.46875 -58.53125 20.3125 -60.082031 23.375 -61 C 26.4375 -61.925781 29.410156 -61.925781 32.296875 -61 C 35.191406 -60.082031 37.820312 -57.960938 40.1875 -54.640625 C 41.59375 -52.710938 42.753906 -51.003906 43.671875 -49.515625 C 44.585938 -48.023438 45.285156 -46.445312 45.765625 -44.78125 C 46.253906 -43.125 46.539062 -41.023438 46.625 -38.484375 L 47.421875 -13.796875 C 47.421875 -12.828125 47.460938 -11.507812 47.546875 -9.84375 C 47.628906 -8.1875 47.5625 -6.546875 47.34375 -4.921875 C 47.125 -3.304688 46.597656 -2.015625 45.765625 -1.046875 C 44.941406 -0.0859375 43.65625 0.21875 41.90625 -0.125 Z M 25.21875 -29.8125 C 26.269531 -29.8125 27.363281 -30.398438 28.5 -31.578125 C 29.632812 -32.765625 30.660156 -34.082031 31.578125 -35.53125 C 32.503906 -36.976562 33.097656 -38.09375 33.359375 -38.875 C 34.234375 -40.800781 34.34375 -42.507812 33.6875 -44 C 33.03125 -45.488281 31.648438 -45.796875 29.546875 -44.921875 C 28.148438 -44.390625 26.796875 -43.160156 25.484375 -41.234375 C 24.171875 -39.316406 23.25 -37.65625 22.71875 -36.25 C 22.28125 -34.851562 22.101562 -33.453125 22.1875 -32.046875 C 22.28125 -30.648438 23.289062 -29.90625 25.21875 -29.8125 Z M 25.21875 -29.8125 "/></g></g></g><g fill="#e4e2dd" fill-opacity="1"><g transform="translate(194.254649, 222.187485)"><g><path d="M 16.421875 0 C 11.867188 0.0820312 8.671875 -1.007812 6.828125 -3.28125 C 4.992188 -5.5625 3.769531 -8.757812 3.15625 -12.875 C 2.363281 -18.039062 1.988281 -23.207031 2.03125 -28.375 C 2.070312 -33.539062 2.179688 -38.660156 2.359375 -43.734375 C 2.535156 -48.378906 2.601562 -53.039062 2.5625 -57.71875 C 2.519531 -62.40625 2.804688 -67.023438 3.421875 -71.578125 C 3.585938 -73.421875 3.976562 -75.5 4.59375 -77.8125 C 5.207031 -80.132812 6.476562 -81.691406 8.40625 -82.484375 C 10.15625 -83.179688 11.796875 -83.023438 13.328125 -82.015625 C 14.859375 -81.015625 16.019531 -79.769531 16.8125 -78.28125 C 17.769531 -76.53125 18.25 -74.625 18.25 -72.5625 C 18.25 -70.507812 18.296875 -68.519531 18.390625 -66.59375 C 18.472656 -63.789062 18.554688 -60.988281 18.640625 -58.1875 C 18.734375 -55.382812 18.648438 -52.582031 18.390625 -49.78125 C 20.398438 -52.050781 22.847656 -53.84375 25.734375 -55.15625 C 28.628906 -56.476562 31.609375 -56.4375 34.671875 -55.03125 C 37.828125 -53.632812 40.148438 -51.617188 41.640625 -48.984375 C 43.128906 -46.359375 43.984375 -43.425781 44.203125 -40.1875 C 44.421875 -36.945312 44.15625 -33.617188 43.40625 -30.203125 C 42.664062 -26.796875 41.660156 -23.554688 40.390625 -20.484375 C 39.117188 -17.421875 37.738281 -14.835938 36.25 -12.734375 C 34.0625 -9.492188 31.238281 -6.582031 27.78125 -4 C 24.320312 -1.414062 20.535156 -0.0820312 16.421875 0 Z M 16.15625 -17.46875 C 18.257812 -17.644531 20.140625 -18.519531 21.796875 -20.09375 C 23.460938 -21.664062 24.882812 -23.503906 26.0625 -25.609375 C 27.25 -27.710938 28.109375 -29.597656 28.640625 -31.265625 C 29.078125 -32.484375 29.335938 -33.789062 29.421875 -35.1875 C 29.503906 -36.59375 29.257812 -37.691406 28.6875 -38.484375 C 28.125 -39.273438 27.007812 -39.363281 25.34375 -38.75 C 23.332031 -37.957031 21.78125 -36.726562 20.6875 -35.0625 C 19.59375 -33.40625 18.78125 -31.523438 18.25 -29.421875 C 17.726562 -27.316406 17.335938 -25.191406 17.078125 -23.046875 C 16.816406 -20.898438 16.507812 -19.039062 16.15625 -17.46875 Z M 16.15625 -17.46875 "/></g></g></g><g fill="#e4e2dd" fill-opacity="1"><g transform="translate(232.998963, 222.187485)"><g><path d="M 7.359375 -4.59375 C 5.335938 -8.09375 3.910156 -12.007812 3.078125 -16.34375 C 2.253906 -20.6875 1.882812 -25.175781 1.96875 -29.8125 C 2.050781 -34.457031 2.378906 -39.007812 2.953125 -43.46875 C 3.523438 -47.9375 4.203125 -52.097656 4.984375 -55.953125 C 5.253906 -57.347656 5.628906 -58.988281 6.109375 -60.875 C 6.585938 -62.757812 7.265625 -64.53125 8.140625 -66.1875 C 9.015625 -67.851562 10.195312 -68.992188 11.6875 -69.609375 C 13.53125 -70.398438 15.148438 -70.398438 16.546875 -69.609375 C 17.953125 -68.828125 19.132812 -67.601562 20.09375 -65.9375 C 21.0625 -64.269531 21.828125 -62.535156 22.390625 -60.734375 C 22.960938 -58.941406 23.378906 -57.390625 23.640625 -56.078125 C 25.046875 -58.441406 26.707031 -60.648438 28.625 -62.703125 C 30.550781 -64.765625 32.765625 -66.320312 35.265625 -67.375 C 37.765625 -68.425781 40.457031 -68.601562 43.34375 -67.90625 C 45.882812 -67.289062 48.203125 -66.019531 50.296875 -64.09375 C 52.398438 -62.164062 54.148438 -59.953125 55.546875 -57.453125 C 56.953125 -54.960938 57.785156 -52.445312 58.046875 -49.90625 C 58.222656 -47.894531 57.851562 -46.054688 56.9375 -44.390625 C 56.019531 -42.734375 54.46875 -41.816406 52.28125 -41.640625 C 50.257812 -41.546875 48.679688 -42.132812 47.546875 -43.40625 C 46.410156 -44.675781 45.097656 -45.835938 43.609375 -46.890625 C 41.328125 -48.640625 39.222656 -49.296875 37.296875 -48.859375 C 35.367188 -48.421875 33.640625 -47.390625 32.109375 -45.765625 C 30.578125 -44.148438 29.195312 -42.289062 27.96875 -40.1875 C 26.65625 -38 25.492188 -35.722656 24.484375 -33.359375 C 23.484375 -30.992188 22.765625 -28.539062 22.328125 -26 C 21.804688 -23.195312 21.457031 -20.375 21.28125 -17.53125 C 21.101562 -14.6875 20.796875 -11.863281 20.359375 -9.0625 C 19.921875 -6.4375 19 -4.222656 17.59375 -2.421875 C 16.195312 -0.628906 14.578125 0.195312 12.734375 0.0625 C 10.898438 -0.0625 9.109375 -1.613281 7.359375 -4.59375 Z M 7.359375 -4.59375 "/></g></g></g><g fill="#e4e2dd" fill-opacity="1"><g transform="translate(284.877059, 222.187485)"><g><path d="M 3.28125 -62.390625 C 2.226562 -64.316406 1.898438 -66.195312 2.296875 -68.03125 C 2.691406 -69.875 3.5 -71.363281 4.71875 -72.5 C 5.945312 -73.632812 7.367188 -74.113281 8.984375 -73.9375 C 10.609375 -73.769531 12.125 -72.632812 13.53125 -70.53125 C 15.019531 -68.425781 15.566406 -66.410156 15.171875 -64.484375 C 14.773438 -62.554688 13.875 -61.023438 12.46875 -59.890625 C 11.070312 -58.753906 9.5 -58.316406 7.75 -58.578125 C 6 -58.835938 4.507812 -60.109375 3.28125 -62.390625 Z M 12.875 -1.4375 C 10.851562 -0.0390625 9.1875 0.394531 7.875 -0.125 C 6.5625 -0.65625 5.53125 -1.75 4.78125 -3.40625 C 4.039062 -5.070312 3.472656 -6.957031 3.078125 -9.0625 C 2.691406 -11.164062 2.453125 -13.15625 2.359375 -15.03125 C 2.273438 -16.914062 2.1875 -18.296875 2.09375 -19.171875 C 2.007812 -22.148438 2.03125 -25.148438 2.15625 -28.171875 C 2.289062 -31.191406 2.445312 -34.191406 2.625 -37.171875 C 2.71875 -38.742188 2.765625 -40.515625 2.765625 -42.484375 C 2.765625 -44.453125 2.957031 -46.332031 3.34375 -48.125 C 3.738281 -49.925781 4.550781 -51.394531 5.78125 -52.53125 C 7.789062 -54.550781 9.492188 -55.453125 10.890625 -55.234375 C 12.296875 -55.015625 13.4375 -54.113281 14.3125 -52.53125 C 15.1875 -50.957031 15.863281 -49.097656 16.34375 -46.953125 C 16.832031 -44.804688 17.1875 -42.703125 17.40625 -40.640625 C 17.625 -38.585938 17.773438 -37.035156 17.859375 -35.984375 C 18.296875 -32.398438 18.382812 -28.832031 18.125 -25.28125 C 17.863281 -21.738281 17.46875 -18.171875 16.9375 -14.578125 C 16.769531 -13.347656 16.597656 -11.859375 16.421875 -10.109375 C 16.242188 -8.359375 15.910156 -6.695312 15.421875 -5.125 C 14.941406 -3.550781 14.09375 -2.320312 12.875 -1.4375 Z M 12.875 -1.4375 "/></g></g></g><g fill="#e4e2dd" fill-opacity="1"><g transform="translate(297.616449, 222.187485)"><g><path d="M 7.625 7.75 C 5.34375 6.695312 4.003906 5.117188 3.609375 3.015625 C 3.210938 0.921875 3.410156 -1.457031 4.203125 -4.125 C 4.992188 -6.800781 6.085938 -9.472656 7.484375 -12.140625 C 8.890625 -14.816406 10.289062 -17.25 11.6875 -19.4375 C 13.09375 -21.625 14.1875 -23.289062 14.96875 -24.4375 C 15.320312 -24.957031 15.976562 -25.785156 16.9375 -26.921875 C 17.90625 -28.066406 18.804688 -29.207031 19.640625 -30.34375 C 20.472656 -31.476562 20.84375 -32.3125 20.75 -32.84375 C 20.75 -33.445312 20.203125 -34.316406 19.109375 -35.453125 C 18.015625 -36.597656 16.851562 -37.71875 15.625 -38.8125 C 14.40625 -39.90625 13.53125 -40.710938 13 -41.234375 C 12.039062 -42.460938 10.835938 -43.929688 9.390625 -45.640625 C 7.941406 -47.347656 6.84375 -49.1875 6.09375 -51.15625 C 5.351562 -53.125 5.46875 -54.984375 6.4375 -56.734375 C 7.664062 -58.835938 9.085938 -59.820312 10.703125 -59.6875 C 12.328125 -59.5625 14.015625 -58.773438 15.765625 -57.328125 C 17.515625 -55.890625 19.195312 -54.160156 20.8125 -52.140625 C 22.4375 -50.128906 23.835938 -48.203125 25.015625 -46.359375 C 26.203125 -44.523438 27.054688 -43.171875 27.578125 -42.296875 C 27.234375 -42.910156 27.5 -43.875 28.375 -45.1875 C 29.25 -46.5 30.453125 -47.941406 31.984375 -49.515625 C 33.515625 -51.085938 35.15625 -52.617188 36.90625 -54.109375 C 38.65625 -55.597656 40.253906 -56.867188 41.703125 -57.921875 C 43.148438 -58.972656 44.175781 -59.585938 44.78125 -59.765625 C 47.582031 -60.640625 49.898438 -60.460938 51.734375 -59.234375 C 53.578125 -58.003906 54.785156 -56.25 55.359375 -53.96875 C 55.929688 -51.695312 55.691406 -49.335938 54.640625 -46.890625 C 52.972656 -43.117188 50.757812 -39.4375 48 -35.84375 C 45.25 -32.257812 42.691406 -28.804688 40.328125 -25.484375 C 41.203125 -24.335938 42.46875 -22.757812 44.125 -20.75 C 45.789062 -18.738281 47.476562 -16.550781 49.1875 -14.1875 C 50.894531 -11.820312 52.207031 -9.519531 53.125 -7.28125 C 54.039062 -5.050781 54.238281 -3.101562 53.71875 -1.4375 C 53.101562 0.570312 52.070312 1.441406 50.625 1.171875 C 49.1875 0.910156 47.613281 -0.0234375 45.90625 -1.640625 C 44.195312 -3.265625 42.488281 -5.125 40.78125 -7.21875 C 39.070312 -9.320312 37.601562 -11.25 36.375 -13 C 35.15625 -14.75 34.367188 -15.890625 34.015625 -16.421875 C 33.054688 -15.109375 31.894531 -13.289062 30.53125 -10.96875 C 29.175781 -8.644531 27.625 -6.210938 25.875 -3.671875 C 24.125 -1.140625 22.265625 1.175781 20.296875 3.28125 C 18.328125 5.382812 16.269531 6.894531 14.125 7.8125 C 11.976562 8.726562 9.8125 8.707031 7.625 7.75 Z M 7.625 7.75 "/></g></g></g><g fill="#e4e2dd" fill-opacity="1"><g transform="translate(346.342442, 222.187485)"><g><path d="M 6.5625 -56.875 C 4.632812 -56.4375 3.363281 -56.695312 2.75 -57.65625 C 2.144531 -58.625 1.925781 -59.851562 2.09375 -61.34375 C 2.269531 -62.832031 2.625 -64.1875 3.15625 -65.40625 C 4.289062 -68.03125 5.601562 -70.523438 7.09375 -72.890625 C 8.582031 -75.253906 10.816406 -76.570312 13.796875 -76.84375 C 15.984375 -77.007812 17.40625 -76.390625 18.0625 -74.984375 C 18.71875 -73.585938 18.890625 -71.96875 18.578125 -70.125 C 18.273438 -68.289062 17.726562 -66.804688 16.9375 -65.671875 C 15.800781 -64.003906 14.289062 -62.226562 12.40625 -60.34375 C 10.53125 -58.46875 8.582031 -57.3125 6.5625 -56.875 Z M 6.5625 -56.875 "/></g></g></g></svg>