<svg xmlns="http://www.w3.org/2000/svg" xmlns:xlink="http://www.w3.org/1999/xlink" width="500" zoomAndPan="magnify" viewBox="0 0 375 374.999991" height="500" preserveAspectRatio="xMidYMid meet" version="1.0"><defs><g/></defs><g fill="#2b2b2b" fill-opacity="1"><g transform="translate(112.898745, 271.157509)"><g><path d="M 71.296875 -4.078125 C 57.265625 -8.691406 44.960938 -16.019531 34.390625 -26.0625 C 23.816406 -36.113281 15.914062 -48.050781 10.6875 -61.875 C 5.445312 -76.320312 3.554688 -90.71875 5.015625 -105.0625 C 6.484375 -119.414062 10.671875 -132.925781 17.578125 -145.59375 C 24.492188 -158.257812 33.5 -169.40625 44.59375 -179.03125 C 55.695312 -188.664062 68.265625 -195.789062 82.296875 -200.40625 C 87.953125 -202.289062 94.234375 -203.910156 101.140625 -205.265625 C 108.054688 -206.628906 114.757812 -207.046875 121.25 -206.515625 C 127.738281 -205.992188 133.128906 -203.847656 137.421875 -200.078125 C 141.710938 -196.316406 144.066406 -190.144531 144.484375 -181.5625 C 144.910156 -173.394531 143.132812 -166.640625 139.15625 -161.296875 C 135.175781 -155.953125 129.988281 -151.601562 123.59375 -148.25 C 117.207031 -144.90625 110.453125 -142.132812 103.328125 -139.9375 C 96.210938 -137.738281 89.617188 -135.695312 83.546875 -133.8125 C 78.523438 -129 74.078125 -123.554688 70.203125 -117.484375 C 66.328125 -111.410156 63.8125 -105.335938 62.65625 -99.265625 C 61.507812 -93.191406 62.347656 -87.535156 65.171875 -82.296875 C 68.003906 -77.054688 73.503906 -72.660156 81.671875 -69.109375 C 86.691406 -67.015625 91.976562 -65.546875 97.53125 -64.703125 C 103.082031 -63.867188 108.421875 -63.03125 113.546875 -62.1875 C 118.679688 -61.351562 123.289062 -59.941406 127.375 -57.953125 C 131.457031 -55.960938 134.492188 -52.925781 136.484375 -48.84375 C 138.472656 -44.757812 139.046875 -38.84375 138.203125 -31.09375 C 137.367188 -22.71875 134.644531 -16.171875 130.03125 -11.453125 C 125.425781 -6.742188 119.828125 -3.550781 113.234375 -1.875 C 106.640625 -0.207031 99.675781 0.363281 92.34375 -0.15625 C 85.019531 -0.675781 78.003906 -1.984375 71.296875 -4.078125 Z M 71.296875 -4.078125 "/></g></g></g></svg>